vn 0.577350 0.577350 -0.577350
v 1.000000 1.000000 -1.000000
vn 0.577350 -0.577350 -0.577350
v 1.000000 -1.000000 -1.000000
vn 0.577350 0.577350 0.577350
v 1.000000 1.000000 1.000000
vn 0.577350 -0.577350 0.577350
v 1.000000 -1.000000 1.000000
vn -0.577350 0.577350 -0.577350
v -1.000000 1.000000 -1.000000
vn -0.577350 -0.577350 -0.577350
v -1.000000 -1.000000 -1.000000
vn -0.577350 0.577350 0.577350
v -1.000000 1.000000 1.000000
vn -0.577350 -0.577350 0.577350
v -1.000000 -1.000000 1.000000
vt 0.625000 0.500000
vt 0.875000 0.500000
vt 0.875000 0.750000
f 1/1/1 5/2/5 7/3/7
vt 0.625000 0.750000
f 1/1/1 7/3/7 3/4/3
vt 0.375000 0.750000
vt 0.625000 1.000000
f 4/5/4 3/4/3 7/6/7
vt 0.375000 1.000000
f 4/5/4 7/6/7 8/7/8
vt 0.375000 0.000000
vt 0.625000 0.000000
vt 0.625000 0.250000
f 8/8/8 7/9/7 5/10/5
vt 0.375000 0.250000
f 8/8/8 5/10/5 6/11/6
vt 0.125000 0.500000
vt 0.375000 0.500000
f 6/12/6 2/13/2 4/5/4
vt 0.125000 0.750000
f 6/12/6 4/5/4 8/14/8
f 2/13/2 1/1/1 3/4/3
f 2/13/2 3/4/3 4/5/4
f 6/11/6 5/10/5 1/1/1
f 6/11/6 1/1/1 2/13/2

v -2 -2 0
v -2 2 0
v 2 2 0
v 2 -2 0
vt 0.7 0.0
vt 0.7 0.2
vt 0.9 0.2
vt 0.9 0.0
f 9/15 10/16 11/17
f 9/15 11/18 12/17